HIERARCHY
ROOT Root
{
	OFFSET 0.00000 0.00000 0.00000
	CHANNELS 6 Xposition Yposition Zposition Zrotation Xrotation Yrotation
	JOINT Hip
	{
		OFFSET 0 0 0	
		CHANNELS 3 Zrotation Xrotation Yrotation
		JOINT Tummy
		{
			OFFSET 0 0.04 0	
			CHANNELS 3 Zrotation Xrotation Yrotation
			JOINT ChestBottom
			{
				OFFSET 0 0.194 0	
				CHANNELS 3 Zrotation Xrotation Yrotation
				JOINT ChestTop
				{
					OFFSET 0 0.166 0	
					CHANNELS 3 Zrotation Xrotation Yrotation
					JOINT LeftCollar
					{
						OFFSET 0 0.1 0	
						CHANNELS 3 Zrotation Xrotation Yrotation
						JOINT LeftUpperArm
						{
							OFFSET 0.156 -0.02 0.03	
							CHANNELS 3 Zrotation Xrotation Yrotation
							JOINT LeftForeArm
							{
								OFFSET 0.035 -0.27 -0.01	
								CHANNELS 3 Zrotation Xrotation Yrotation
								JOINT LeftHand
								{
									OFFSET 0.01 -0.27 0.01	
									CHANNELS 3 Zrotation Xrotation Yrotation
									End Site
									{
										OFFSET 0 -0.15 0
									}
								}
							}
						}
					}
					JOINT RightCollar
					{
						OFFSET 0 0.1 0	
						CHANNELS 3 Zrotation Xrotation Yrotation
						JOINT RightUpperArm
						{
							OFFSET -0.156 -0.02 0.03	
							CHANNELS 3 Zrotation Xrotation Yrotation
							JOINT RightForeArm
							{
								OFFSET -0.035 -0.27 -0.01	
								CHANNELS 3 Zrotation Xrotation Yrotation
								JOINT RightHand
								{
									OFFSET -0.01 -0.27 0.01	
									CHANNELS 3 Zrotation Xrotation Yrotation
									End Site
									{
										OFFSET 0 -0.15 0
									}
								}
							}
						}
					}
					JOINT Neck
					{
						OFFSET 0 0.1 0	
						CHANNELS 3 Zrotation Xrotation Yrotation
						JOINT Head
						{
							OFFSET 0 0.127 0.03	
							CHANNELS 3 Zrotation Xrotation Yrotation
							End Site
							{
								OFFSET 0 0.127 0.03
							}
						}
					}
				}
			}
		}
	}
	JOINT LeftHip
	{
		OFFSET 0 0 0	
		CHANNELS 3 Zrotation Xrotation Yrotation
		JOINT LeftThigh
		{
			OFFSET 0.088 -0.06 0	
			CHANNELS 3 Zrotation Xrotation Yrotation
			JOINT LeftLowerLeg
			{
				OFFSET 0 -0.39 0.02	
				CHANNELS 3 Zrotation Xrotation Yrotation
				JOINT LeftFootTop
				{
					OFFSET 0 -0.43 -0.02	
					CHANNELS 3 Zrotation Xrotation Yrotation
					JOINT LeftFootFront
					{
						OFFSET 0 -0.07 0.085	
						CHANNELS 3 Zrotation Xrotation Yrotation
						End Site
						{
							OFFSET 0 -0.005 0.09
						}
					}
				}
				JOINT LeftHeel
				{
					OFFSET 0 -0.43 -0.02	
					CHANNELS 3 Zrotation Xrotation Yrotation
					End Site
					{
						OFFSET 0 -0.075 -0.05
					}
				}
			}
		}
	}
	JOINT RightHip
	{
		OFFSET 0 0 0	
		CHANNELS 3 Zrotation Xrotation Yrotation
		JOINT RightThigh
		{
			OFFSET -0.088 -0.06 0	
			CHANNELS 3 Zrotation Xrotation Yrotation
			JOINT RightLowerLeg
			{
				OFFSET 0 -0.39 0.02	
				CHANNELS 3 Zrotation Xrotation Yrotation
				JOINT RightFootTop
				{
					OFFSET 0 -0.43 -0.02	
					CHANNELS 3 Zrotation Xrotation Yrotation
					JOINT RightFootFront
					{
						OFFSET 0 -0.07 0.085	
						CHANNELS 3 Zrotation Xrotation Yrotation
						End Site
						{
							OFFSET 0 -0.005 0.09
						}
					}
				}
				JOINT RightHeel
				{
					OFFSET 0 -0.43 -0.02	
					CHANNELS 3 Zrotation Xrotation Yrotation
					End Site
					{
						OFFSET 0 -0.075 -0.05
					}
				}
			}
		}
	}
}
MOTION
Frames: 10
Frame Time: 0.05
0 0.9567 0 -0 0 -0 3.5803 -0.3693 -152.11 5.0109 1.2362 0.79475 5.0109 1.2362 0.79474 4.2102 1.0338 0.67488 -0 0 -0 -45.615 -54.088 -57.24 -42.468 -41.666 -64.194 41.911 -20.946 7.4767 -0 0 -0 14.312 -46.408 49.364 16.761 -39.051 40.35 -37.254 -35.192 3.6486 -3.2873 -23.201 1.441 1.2346 -22.206 2.2327 3.5803 -0.3693 -152.11 8.3368 0.9926 1.9662 -0 0 -0 -0 0 -0 -0 0 -0 -0 0 -0 3.5803 -0.3693 -152.11 12.987 -5.3887 26.512 -0 0 -0 -0 0 -0 -0 0 -0 -0 0 -0 
0 0.9567 0 -0 0 -0 3.6445 -0.47955 -152.27 4.9569 1.2346 0.68109 4.9569 1.2346 0.68109 4.1647 1.0332 0.57931 -0 0 -0 -45.483 -53.953 -56.879 -41.302 -40.924 -63.733 41.844 -20.826 7.1209 -0 0 -0 14.645 -46.01 49.905 16.784 -39.424 40.563 -36.855 -35.389 4.1849 -3.1755 -23.409 1.6317 1.262 -22.408 2.3192 3.6445 -0.47955 -152.27 8.3446 0.90333 2.0684 -0 0 -0 -0 0 -0 -0 0 -0 -0 0 -0 3.6445 -0.47955 -152.27 13.04 -5.4414 26.554 -0 0 -0 -0 0 -0 -0 0 -0 -0 0 -0 
0 0.9567 0 -0 0 -0 3.6996 -0.58033 -152.43 4.9197 1.1978 0.57795 4.9197 1.1978 0.57795 4.1333 1.0029 0.49241 -0 0 -0 -45.258 -53.654 -56.406 -40.532 -40.399 -63.744 41.749 -20.891 6.6386 -0 0 -0 14.782 -45.595 50.209 16.92 -39.918 40.752 -36.588 -35.46 4.5214 -3.0746 -23.54 1.748 1.2942 -22.563 2.3386 3.6996 -0.58033 -152.43 8.3434 0.83366 2.1551 -0 0 -0 -0 0 -0 -0 0 -0 -0 0 -0 3.6996 -0.58033 -152.43 13.062 -5.4763 26.641 -0 0 -0 -0 0 -0 -0 0 -0 -0 0 -0 
0 0.9567 0 -0 0 -0 3.7278 -0.66067 -152.59 4.9098 1.1892 0.48684 4.9098 1.1892 0.48684 4.1248 0.99618 0.41581 -0 0 -0 -45.003 -53.405 -56.01 -40.438 -40.097 -63.836 41.467 -20.881 6.039 -0 0 -0 14.748 -45.293 50.333 17.264 -40.558 41.135 -36.35 -35.314 4.7066 -3.0566 -23.68 1.769 1.2718 -22.707 2.2766 3.7278 -0.66067 -152.59 8.3474 0.7861 2.2021 -0 0 -0 -0 0 -0 -0 0 -0 -0 0 -0 3.7278 -0.66067 -152.59 13.061 -5.4872 26.754 -0 0 -0 -0 0 -0 -0 0 -0 -0 0 -0 
0 0.9567 0 -0 0 -0 3.7342 -0.71163 -152.69 4.9397 1.1456 0.40269 4.9396 1.1456 0.40268 4.1497 0.96004 0.34491 -0 0 -0 -44.301 -53.16 -55.183 -41.344 -40.22 -64.575 41.07 -20.87 5.4863 -0 0 -0 14.399 -44.949 50.128 17.866 -41.26 41.856 -36.331 -35.184 4.6465 -3.1206 -23.716 1.6842 1.2019 -22.775 2.1143 3.7342 -0.71163 -152.69 8.3399 0.73848 2.2028 -0 0 -0 -0 0 -0 -0 0 -0 -0 0 -0 3.7342 -0.71163 -152.69 13.049 -5.4752 26.777 -0 0 -0 -0 0 -0 -0 0 -0 -0 0 -0 
0 0.9567 0 -0 0 -0 3.7329 -0.73283 -152.72 4.9935 1.0235 0.30153 4.9935 1.0235 0.30153 4.1948 0.858 0.25929 -0 0 -0 -42.999 -52.918 -53.751 -43.27 -40.874 -66.488 40.572 -21.064 4.8636 -0 0 -0 13.673 -44.391 49.542 18.74 -41.884 42.775 -36.454 -35.261 4.501 -3.1883 -23.573 1.5579 1.1392 -22.731 1.8903 3.7329 -0.73283 -152.72 8.3349 0.70977 2.1379 -0 0 -0 -0 0 -0 -0 0 -0 -0 0 -0 3.7329 -0.73283 -152.72 13.031 -5.4303 26.641 -0 0 -0 -0 0 -0 -0 0 -0 -0 0 -0 
0 0.9567 0 -0 0 -0 3.7333 -0.72167 -152.66 5.0501 0.86391 0.15614 5.0501 0.86391 0.15615 4.2422 0.72481 0.13628 -0 0 -0 -41.141 -52.718 -51.788 -46.351 -41.83 -69.442 39.92 -21.36 4.1226 -0 0 -0 12.656 -43.617 48.77 19.757 -42.522 43.787 -36.415 -35.338 4.4832 -3.2103 -23.316 1.5047 1.1074 -22.6 1.696 3.7333 -0.72167 -152.66 8.3452 0.71464 2.049 -0 0 -0 -0 0 -0 -0 0 -0 -0 0 -0 3.7333 -0.72167 -152.66 13.027 -5.3664 26.429 -0 0 -0 -0 0 -0 -0 0 -0 -0 0 -0 
0 0.9567 0 -0 0 -0 3.7527 -0.67323 -152.56 5.0686 0.67458 -0.0061143 5.0686 0.67458 -0.0061118 4.2576 0.56672 -0.0011237 -0 0 -0 -38.657 -52.458 -49.227 -50.456 -42.729 -73.248 39.186 -21.676 3.515 -0 0 -0 11.312 -42.513 47.754 20.735 -43.309 44.706 -36.233 -35.535 4.5472 -3.1433 -22.965 1.5272 1.1268 -22.4 1.5596 3.7527 -0.67323 -152.56 8.377 0.76436 1.9548 -0 0 -0 -0 0 -0 -0 0 -0 -0 0 -0 3.7527 -0.67323 -152.56 13.056 -5.3058 26.261 -0 0 -0 -0 0 -0 -0 0 -0 -0 0 -0 
0 0.9567 0 -0 0 -0 3.7849 -0.56965 -152.42 5.056 0.48455 -0.17073 5.056 0.48455 -0.17073 4.2469 0.40806 -0.14055 -0 0 -0 -35.651 -52.13 -46.145 -55.172 -43.317 -77.632 38.542 -21.919 3.0548 -0 0 -0 9.6808 -41.202 46.312 22.009 -44.14 45.734 -36.029 -35.751 4.7717 -2.9857 -22.586 1.6163 1.2117 -22.171 1.4876 3.7849 -0.56965 -152.42 8.4365 0.8598 1.8482 -0 0 -0 -0 0 -0 -0 0 -0 -0 0 -0 3.7849 -0.56965 -152.42 13.095 -5.2255 26.178 -0 0 -0 -0 0 -0 -0 0 -0 -0 0 -0 
0 0.9567 0 -0 0 -0 3.8304 -0.42126 -152.28 5.0267 0.26189 -0.33153 5.0267 0.26188 -0.33153 4.2223 0.22195 -0.27696 -0 0 -0 -32.223 -51.547 -42.772 -60.021 -43.628 -81.973 37.927 -22.094 2.5244 -0 0 -0 7.878 -39.547 44.65 23.328 -45.032 46.799 -35.766 -35.803 4.8746 -2.7756 -22.117 1.7306 1.3388 -21.882 1.444 3.8304 -0.42126 -152.28 8.5293 0.99612 1.7002 -0 0 -0 -0 0 -0 -0 0 -0 -0 0 -0 3.8304 -0.42126 -152.28 13.151 -5.1263 26.098 -0 0 -0 -0 0 -0 -0 0 -0 -0 0 -0 
